<svg xmlns="http://www.w3.org/2000/svg" viewBox="0 0 1280 640" width="100%" role="img" aria-label="Paper-WorkFlow 全流程流水线：从一句话 idea 到可投稿全文，Stage 0 到 9">
<defs>
<radialGradient id="bg" cx="50%" cy="22%" r="95%"><stop offset="0%" stop-color="#0D1226"/><stop offset="55%" stop-color="#0A0F22"/><stop offset="100%" stop-color="#070B1A"/></radialGradient>
<linearGradient id="rail" x1="0%" y1="0%" x2="100%" y2="0%"><stop offset="0%" stop-color="#6366F1"/><stop offset="36%" stop-color="#10B981"/><stop offset="66%" stop-color="#0EA5E9"/><stop offset="100%" stop-color="#F43F5E"/></linearGradient>
<linearGradient id="title" gradientUnits="userSpaceOnUse" x1="440" y1="0" x2="840" y2="0"><stop offset="0%" stop-color="#A5B4FC"/><stop offset="42%" stop-color="#E7EBF8"/><stop offset="50%" stop-color="#FFFFFF"/><stop offset="58%" stop-color="#E7EBF8"/><stop offset="100%" stop-color="#7DD3FC"/><animateTransform attributeName="gradientTransform" type="translate" from="-520 0" to="520 0" dur="6s" repeatCount="indefinite"/></linearGradient>
<radialGradient id="idea" cx="38%" cy="34%" r="75%"><stop offset="0%" stop-color="#FEF3C7"/><stop offset="42%" stop-color="#FCD34D"/><stop offset="100%" stop-color="#F59E0B"/></radialGradient>
<radialGradient id="paper" cx="38%" cy="34%" r="75%"><stop offset="0%" stop-color="#FFFFFF"/><stop offset="48%" stop-color="#C7D2FE"/><stop offset="100%" stop-color="#818CF8"/></radialGradient>
<radialGradient id="comet" cx="50%" cy="50%" r="50%"><stop offset="0%" stop-color="#FFFFFF"/><stop offset="45%" stop-color="#E0E7FF"/><stop offset="100%" stop-color="#6366F1" stop-opacity="0"/></radialGradient>
<filter id="soft" x="-60%" y="-60%" width="220%" height="220%"><feGaussianBlur stdDev="4"/></filter>
<filter id="strong" x="-120%" y="-120%" width="340%" height="340%"><feGaussianBlur stdDev="9"/></filter>
<filter id="huge" x="-150%" y="-150%" width="400%" height="400%"><feGaussianBlur stdDev="22"/></filter>
</defs>
<style>text{font-family:"PingFang SC","Hiragino Sans GB","Microsoft YaHei","Noto Sans SC","Segoe UI",system-ui,-apple-system,sans-serif;}</style>
<rect width="1280" height="640" rx="22" fill="url(#bg)"/>
<g opacity="0.5">
<circle cx="270" cy="170" r="190" fill="#4338CA" opacity="0.22" filter="url(#huge)"><animateTransform attributeName="transform" type="translate" values="0 0; 40 30; 0 0" dur="16s" repeatCount="indefinite"/></circle>
<circle cx="1010" cy="470" r="210" fill="#0E7490" opacity="0.20" filter="url(#huge)"><animateTransform attributeName="transform" type="translate" values="0 0; -46 -26; 0 0" dur="19s" repeatCount="indefinite"/></circle>
<circle cx="900" cy="120" r="150" fill="#9333EA" opacity="0.15" filter="url(#huge)"><animateTransform attributeName="transform" type="translate" values="0 0; -30 36; 0 0" dur="22s" repeatCount="indefinite"/></circle>
</g>
<g fill="#9AA3C7" opacity="0.05">
<circle cx="60" cy="70" r="1.1"/>
<circle cx="60" cy="116" r="1.1"/>
<circle cx="60" cy="162" r="1.1"/>
<circle cx="60" cy="208" r="1.1"/>
<circle cx="60" cy="254" r="1.1"/>
<circle cx="60" cy="300" r="1.1"/>
<circle cx="60" cy="346" r="1.1"/>
<circle cx="60" cy="392" r="1.1"/>
<circle cx="60" cy="438" r="1.1"/>
<circle cx="60" cy="484" r="1.1"/>
<circle cx="60" cy="530" r="1.1"/>
<circle cx="60" cy="576" r="1.1"/>
<circle cx="106" cy="70" r="1.1"/>
<circle cx="106" cy="116" r="1.1"/>
<circle cx="106" cy="162" r="1.1"/>
<circle cx="106" cy="208" r="1.1"/>
<circle cx="106" cy="254" r="1.1"/>
<circle cx="106" cy="300" r="1.1"/>
<circle cx="106" cy="346" r="1.1"/>
<circle cx="106" cy="392" r="1.1"/>
<circle cx="106" cy="438" r="1.1"/>
<circle cx="106" cy="484" r="1.1"/>
<circle cx="106" cy="530" r="1.1"/>
<circle cx="106" cy="576" r="1.1"/>
<circle cx="152" cy="70" r="1.1"/>
<circle cx="152" cy="116" r="1.1"/>
<circle cx="152" cy="162" r="1.1"/>
<circle cx="152" cy="208" r="1.1"/>
<circle cx="152" cy="254" r="1.1"/>
<circle cx="152" cy="300" r="1.1"/>
<circle cx="152" cy="346" r="1.1"/>
<circle cx="152" cy="392" r="1.1"/>
<circle cx="152" cy="438" r="1.1"/>
<circle cx="152" cy="484" r="1.1"/>
<circle cx="152" cy="530" r="1.1"/>
<circle cx="152" cy="576" r="1.1"/>
<circle cx="198" cy="70" r="1.1"/>
<circle cx="198" cy="116" r="1.1"/>
<circle cx="198" cy="162" r="1.1"/>
<circle cx="198" cy="208" r="1.1"/>
<circle cx="198" cy="254" r="1.1"/>
<circle cx="198" cy="300" r="1.1"/>
<circle cx="198" cy="346" r="1.1"/>
<circle cx="198" cy="392" r="1.1"/>
<circle cx="198" cy="438" r="1.1"/>
<circle cx="198" cy="484" r="1.1"/>
<circle cx="198" cy="530" r="1.1"/>
<circle cx="198" cy="576" r="1.1"/>
<circle cx="244" cy="70" r="1.1"/>
<circle cx="244" cy="116" r="1.1"/>
<circle cx="244" cy="162" r="1.1"/>
<circle cx="244" cy="208" r="1.1"/>
<circle cx="244" cy="254" r="1.1"/>
<circle cx="244" cy="300" r="1.1"/>
<circle cx="244" cy="346" r="1.1"/>
<circle cx="244" cy="392" r="1.1"/>
<circle cx="244" cy="438" r="1.1"/>
<circle cx="244" cy="484" r="1.1"/>
<circle cx="244" cy="530" r="1.1"/>
<circle cx="244" cy="576" r="1.1"/>
<circle cx="290" cy="70" r="1.1"/>
<circle cx="290" cy="116" r="1.1"/>
<circle cx="290" cy="162" r="1.1"/>
<circle cx="290" cy="208" r="1.1"/>
<circle cx="290" cy="254" r="1.1"/>
<circle cx="290" cy="300" r="1.1"/>
<circle cx="290" cy="346" r="1.1"/>
<circle cx="290" cy="392" r="1.1"/>
<circle cx="290" cy="438" r="1.1"/>
<circle cx="290" cy="484" r="1.1"/>
<circle cx="290" cy="530" r="1.1"/>
<circle cx="290" cy="576" r="1.1"/>
<circle cx="336" cy="70" r="1.1"/>
<circle cx="336" cy="116" r="1.1"/>
<circle cx="336" cy="162" r="1.1"/>
<circle cx="336" cy="208" r="1.1"/>
<circle cx="336" cy="254" r="1.1"/>
<circle cx="336" cy="300" r="1.1"/>
<circle cx="336" cy="346" r="1.1"/>
<circle cx="336" cy="392" r="1.1"/>
<circle cx="336" cy="438" r="1.1"/>
<circle cx="336" cy="484" r="1.1"/>
<circle cx="336" cy="530" r="1.1"/>
<circle cx="336" cy="576" r="1.1"/>
<circle cx="382" cy="70" r="1.1"/>
<circle cx="382" cy="116" r="1.1"/>
<circle cx="382" cy="162" r="1.1"/>
<circle cx="382" cy="208" r="1.1"/>
<circle cx="382" cy="254" r="1.1"/>
<circle cx="382" cy="300" r="1.1"/>
<circle cx="382" cy="346" r="1.1"/>
<circle cx="382" cy="392" r="1.1"/>
<circle cx="382" cy="438" r="1.1"/>
<circle cx="382" cy="484" r="1.1"/>
<circle cx="382" cy="530" r="1.1"/>
<circle cx="382" cy="576" r="1.1"/>
<circle cx="428" cy="70" r="1.1"/>
<circle cx="428" cy="116" r="1.1"/>
<circle cx="428" cy="162" r="1.1"/>
<circle cx="428" cy="208" r="1.1"/>
<circle cx="428" cy="254" r="1.1"/>
<circle cx="428" cy="300" r="1.1"/>
<circle cx="428" cy="346" r="1.1"/>
<circle cx="428" cy="392" r="1.1"/>
<circle cx="428" cy="438" r="1.1"/>
<circle cx="428" cy="484" r="1.1"/>
<circle cx="428" cy="530" r="1.1"/>
<circle cx="428" cy="576" r="1.1"/>
<circle cx="474" cy="70" r="1.1"/>
<circle cx="474" cy="116" r="1.1"/>
<circle cx="474" cy="162" r="1.1"/>
<circle cx="474" cy="208" r="1.1"/>
<circle cx="474" cy="254" r="1.1"/>
<circle cx="474" cy="300" r="1.1"/>
<circle cx="474" cy="346" r="1.1"/>
<circle cx="474" cy="392" r="1.1"/>
<circle cx="474" cy="438" r="1.1"/>
<circle cx="474" cy="484" r="1.1"/>
<circle cx="474" cy="530" r="1.1"/>
<circle cx="474" cy="576" r="1.1"/>
<circle cx="520" cy="70" r="1.1"/>
<circle cx="520" cy="116" r="1.1"/>
<circle cx="520" cy="162" r="1.1"/>
<circle cx="520" cy="208" r="1.1"/>
<circle cx="520" cy="254" r="1.1"/>
<circle cx="520" cy="300" r="1.1"/>
<circle cx="520" cy="346" r="1.1"/>
<circle cx="520" cy="392" r="1.1"/>
<circle cx="520" cy="438" r="1.1"/>
<circle cx="520" cy="484" r="1.1"/>
<circle cx="520" cy="530" r="1.1"/>
<circle cx="520" cy="576" r="1.1"/>
<circle cx="566" cy="70" r="1.1"/>
<circle cx="566" cy="116" r="1.1"/>
<circle cx="566" cy="162" r="1.1"/>
<circle cx="566" cy="208" r="1.1"/>
<circle cx="566" cy="254" r="1.1"/>
<circle cx="566" cy="300" r="1.1"/>
<circle cx="566" cy="346" r="1.1"/>
<circle cx="566" cy="392" r="1.1"/>
<circle cx="566" cy="438" r="1.1"/>
<circle cx="566" cy="484" r="1.1"/>
<circle cx="566" cy="530" r="1.1"/>
<circle cx="566" cy="576" r="1.1"/>
<circle cx="612" cy="70" r="1.1"/>
<circle cx="612" cy="116" r="1.1"/>
<circle cx="612" cy="162" r="1.1"/>
<circle cx="612" cy="208" r="1.1"/>
<circle cx="612" cy="254" r="1.1"/>
<circle cx="612" cy="300" r="1.1"/>
<circle cx="612" cy="346" r="1.1"/>
<circle cx="612" cy="392" r="1.1"/>
<circle cx="612" cy="438" r="1.1"/>
<circle cx="612" cy="484" r="1.1"/>
<circle cx="612" cy="530" r="1.1"/>
<circle cx="612" cy="576" r="1.1"/>
<circle cx="658" cy="70" r="1.1"/>
<circle cx="658" cy="116" r="1.1"/>
<circle cx="658" cy="162" r="1.1"/>
<circle cx="658" cy="208" r="1.1"/>
<circle cx="658" cy="254" r="1.1"/>
<circle cx="658" cy="300" r="1.1"/>
<circle cx="658" cy="346" r="1.1"/>
<circle cx="658" cy="392" r="1.1"/>
<circle cx="658" cy="438" r="1.1"/>
<circle cx="658" cy="484" r="1.1"/>
<circle cx="658" cy="530" r="1.1"/>
<circle cx="658" cy="576" r="1.1"/>
<circle cx="704" cy="70" r="1.1"/>
<circle cx="704" cy="116" r="1.1"/>
<circle cx="704" cy="162" r="1.1"/>
<circle cx="704" cy="208" r="1.1"/>
<circle cx="704" cy="254" r="1.1"/>
<circle cx="704" cy="300" r="1.1"/>
<circle cx="704" cy="346" r="1.1"/>
<circle cx="704" cy="392" r="1.1"/>
<circle cx="704" cy="438" r="1.1"/>
<circle cx="704" cy="484" r="1.1"/>
<circle cx="704" cy="530" r="1.1"/>
<circle cx="704" cy="576" r="1.1"/>
<circle cx="750" cy="70" r="1.1"/>
<circle cx="750" cy="116" r="1.1"/>
<circle cx="750" cy="162" r="1.1"/>
<circle cx="750" cy="208" r="1.1"/>
<circle cx="750" cy="254" r="1.1"/>
<circle cx="750" cy="300" r="1.1"/>
<circle cx="750" cy="346" r="1.1"/>
<circle cx="750" cy="392" r="1.1"/>
<circle cx="750" cy="438" r="1.1"/>
<circle cx="750" cy="484" r="1.1"/>
<circle cx="750" cy="530" r="1.1"/>
<circle cx="750" cy="576" r="1.1"/>
<circle cx="796" cy="70" r="1.1"/>
<circle cx="796" cy="116" r="1.1"/>
<circle cx="796" cy="162" r="1.1"/>
<circle cx="796" cy="208" r="1.1"/>
<circle cx="796" cy="254" r="1.1"/>
<circle cx="796" cy="300" r="1.1"/>
<circle cx="796" cy="346" r="1.1"/>
<circle cx="796" cy="392" r="1.1"/>
<circle cx="796" cy="438" r="1.1"/>
<circle cx="796" cy="484" r="1.1"/>
<circle cx="796" cy="530" r="1.1"/>
<circle cx="796" cy="576" r="1.1"/>
<circle cx="842" cy="70" r="1.1"/>
<circle cx="842" cy="116" r="1.1"/>
<circle cx="842" cy="162" r="1.1"/>
<circle cx="842" cy="208" r="1.1"/>
<circle cx="842" cy="254" r="1.1"/>
<circle cx="842" cy="300" r="1.1"/>
<circle cx="842" cy="346" r="1.1"/>
<circle cx="842" cy="392" r="1.1"/>
<circle cx="842" cy="438" r="1.1"/>
<circle cx="842" cy="484" r="1.1"/>
<circle cx="842" cy="530" r="1.1"/>
<circle cx="842" cy="576" r="1.1"/>
<circle cx="888" cy="70" r="1.1"/>
<circle cx="888" cy="116" r="1.1"/>
<circle cx="888" cy="162" r="1.1"/>
<circle cx="888" cy="208" r="1.1"/>
<circle cx="888" cy="254" r="1.1"/>
<circle cx="888" cy="300" r="1.1"/>
<circle cx="888" cy="346" r="1.1"/>
<circle cx="888" cy="392" r="1.1"/>
<circle cx="888" cy="438" r="1.1"/>
<circle cx="888" cy="484" r="1.1"/>
<circle cx="888" cy="530" r="1.1"/>
<circle cx="888" cy="576" r="1.1"/>
<circle cx="934" cy="70" r="1.1"/>
<circle cx="934" cy="116" r="1.1"/>
<circle cx="934" cy="162" r="1.1"/>
<circle cx="934" cy="208" r="1.1"/>
<circle cx="934" cy="254" r="1.1"/>
<circle cx="934" cy="300" r="1.1"/>
<circle cx="934" cy="346" r="1.1"/>
<circle cx="934" cy="392" r="1.1"/>
<circle cx="934" cy="438" r="1.1"/>
<circle cx="934" cy="484" r="1.1"/>
<circle cx="934" cy="530" r="1.1"/>
<circle cx="934" cy="576" r="1.1"/>
<circle cx="980" cy="70" r="1.1"/>
<circle cx="980" cy="116" r="1.1"/>
<circle cx="980" cy="162" r="1.1"/>
<circle cx="980" cy="208" r="1.1"/>
<circle cx="980" cy="254" r="1.1"/>
<circle cx="980" cy="300" r="1.1"/>
<circle cx="980" cy="346" r="1.1"/>
<circle cx="980" cy="392" r="1.1"/>
<circle cx="980" cy="438" r="1.1"/>
<circle cx="980" cy="484" r="1.1"/>
<circle cx="980" cy="530" r="1.1"/>
<circle cx="980" cy="576" r="1.1"/>
<circle cx="1026" cy="70" r="1.1"/>
<circle cx="1026" cy="116" r="1.1"/>
<circle cx="1026" cy="162" r="1.1"/>
<circle cx="1026" cy="208" r="1.1"/>
<circle cx="1026" cy="254" r="1.1"/>
<circle cx="1026" cy="300" r="1.1"/>
<circle cx="1026" cy="346" r="1.1"/>
<circle cx="1026" cy="392" r="1.1"/>
<circle cx="1026" cy="438" r="1.1"/>
<circle cx="1026" cy="484" r="1.1"/>
<circle cx="1026" cy="530" r="1.1"/>
<circle cx="1026" cy="576" r="1.1"/>
<circle cx="1072" cy="70" r="1.1"/>
<circle cx="1072" cy="116" r="1.1"/>
<circle cx="1072" cy="162" r="1.1"/>
<circle cx="1072" cy="208" r="1.1"/>
<circle cx="1072" cy="254" r="1.1"/>
<circle cx="1072" cy="300" r="1.1"/>
<circle cx="1072" cy="346" r="1.1"/>
<circle cx="1072" cy="392" r="1.1"/>
<circle cx="1072" cy="438" r="1.1"/>
<circle cx="1072" cy="484" r="1.1"/>
<circle cx="1072" cy="530" r="1.1"/>
<circle cx="1072" cy="576" r="1.1"/>
<circle cx="1118" cy="70" r="1.1"/>
<circle cx="1118" cy="116" r="1.1"/>
<circle cx="1118" cy="162" r="1.1"/>
<circle cx="1118" cy="208" r="1.1"/>
<circle cx="1118" cy="254" r="1.1"/>
<circle cx="1118" cy="300" r="1.1"/>
<circle cx="1118" cy="346" r="1.1"/>
<circle cx="1118" cy="392" r="1.1"/>
<circle cx="1118" cy="438" r="1.1"/>
<circle cx="1118" cy="484" r="1.1"/>
<circle cx="1118" cy="530" r="1.1"/>
<circle cx="1118" cy="576" r="1.1"/>
<circle cx="1164" cy="70" r="1.1"/>
<circle cx="1164" cy="116" r="1.1"/>
<circle cx="1164" cy="162" r="1.1"/>
<circle cx="1164" cy="208" r="1.1"/>
<circle cx="1164" cy="254" r="1.1"/>
<circle cx="1164" cy="300" r="1.1"/>
<circle cx="1164" cy="346" r="1.1"/>
<circle cx="1164" cy="392" r="1.1"/>
<circle cx="1164" cy="438" r="1.1"/>
<circle cx="1164" cy="484" r="1.1"/>
<circle cx="1164" cy="530" r="1.1"/>
<circle cx="1164" cy="576" r="1.1"/>
<circle cx="1210" cy="70" r="1.1"/>
<circle cx="1210" cy="116" r="1.1"/>
<circle cx="1210" cy="162" r="1.1"/>
<circle cx="1210" cy="208" r="1.1"/>
<circle cx="1210" cy="254" r="1.1"/>
<circle cx="1210" cy="300" r="1.1"/>
<circle cx="1210" cy="346" r="1.1"/>
<circle cx="1210" cy="392" r="1.1"/>
<circle cx="1210" cy="438" r="1.1"/>
<circle cx="1210" cy="484" r="1.1"/>
<circle cx="1210" cy="530" r="1.1"/>
<circle cx="1210" cy="576" r="1.1"/>
</g>
<g fill="#C7D2FE">
<circle cx="150" cy="560" r="3.0" opacity="0.0"><animate attributeName="cy" values="560;490" dur="9s" begin="-0.0s" repeatCount="indefinite"/><animate attributeName="opacity" values="0;0.55;0" dur="9s" begin="-0.0s" repeatCount="indefinite"/></circle>
<circle cx="360" cy="600" r="2.2" opacity="0.0"><animate attributeName="cy" values="600;530" dur="11s" begin="-0.7s" repeatCount="indefinite"/><animate attributeName="opacity" values="0;0.55;0" dur="11s" begin="-0.7s" repeatCount="indefinite"/></circle>
<circle cx="620" cy="580" r="2.6" opacity="0.0"><animate attributeName="cy" values="580;510" dur="13s" begin="-1.4s" repeatCount="indefinite"/><animate attributeName="opacity" values="0;0.55;0" dur="13s" begin="-1.4s" repeatCount="indefinite"/></circle>
<circle cx="880" cy="560" r="2.0" opacity="0.0"><animate attributeName="cy" values="560;490" dur="8s" begin="-2.0999999999999996s" repeatCount="indefinite"/><animate attributeName="opacity" values="0;0.55;0" dur="8s" begin="-2.0999999999999996s" repeatCount="indefinite"/></circle>
<circle cx="1130" cy="600" r="3.0" opacity="0.0"><animate attributeName="cy" values="600;530" dur="12s" begin="-2.8s" repeatCount="indefinite"/><animate attributeName="opacity" values="0;0.55;0" dur="12s" begin="-2.8s" repeatCount="indefinite"/></circle>
<circle cx="240" cy="80" r="2.0" opacity="0.0"><animate attributeName="cy" values="80;10" dur="10s" begin="-3.5s" repeatCount="indefinite"/><animate attributeName="opacity" values="0;0.55;0" dur="10s" begin="-3.5s" repeatCount="indefinite"/></circle>
<circle cx="1040" cy="90" r="2.4" opacity="0.0"><animate attributeName="cy" values="90;20" dur="14s" begin="-4.199999999999999s" repeatCount="indefinite"/><animate attributeName="opacity" values="0;0.55;0" dur="14s" begin="-4.199999999999999s" repeatCount="indefinite"/></circle>
<circle cx="700" cy="70" r="1.8" opacity="0.0"><animate attributeName="cy" values="70;0" dur="9s" begin="-4.8999999999999995s" repeatCount="indefinite"/><animate attributeName="opacity" values="0;0.55;0" dur="9s" begin="-4.8999999999999995s" repeatCount="indefinite"/></circle>
<circle cx="460" cy="110" r="2.2" opacity="0.0"><animate attributeName="cy" values="110;40" dur="12s" begin="-5.6s" repeatCount="indefinite"/><animate attributeName="opacity" values="0;0.55;0" dur="12s" begin="-5.6s" repeatCount="indefinite"/></circle>
<circle cx="1180" cy="420" r="2.0" opacity="0.0"><animate attributeName="cy" values="420;350" dur="11s" begin="-6.3s" repeatCount="indefinite"/><animate attributeName="opacity" values="0;0.55;0" dur="11s" begin="-6.3s" repeatCount="indefinite"/></circle>
<circle cx="70" cy="360" r="2.4" opacity="0.0"><animate attributeName="cy" values="360;290" dur="13s" begin="-7.0s" repeatCount="indefinite"/><animate attributeName="opacity" values="0;0.55;0" dur="13s" begin="-7.0s" repeatCount="indefinite"/></circle>
<circle cx="1210" cy="300" r="1.8" opacity="0.0"><animate attributeName="cy" values="300;230" dur="10s" begin="-7.699999999999999s" repeatCount="indefinite"/><animate attributeName="opacity" values="0;0.55;0" dur="10s" begin="-7.699999999999999s" repeatCount="indefinite"/></circle>
</g>
<text x="640.0" y="58" text-anchor="middle" fill="#646C90" font-size="14" letter-spacing="6" font-weight="600">META-ORCHESTRATOR · STAGE 0 → 9 · 经管 / 社科实证论文全流程</text>
<text x="640.0" y="104" text-anchor="middle" fill="url(#title)" font-size="48" font-weight="800" letter-spacing="1">Paper-WorkFlow</text>
<text x="640.0" y="140" text-anchor="middle" fill="#9AA3C7" font-size="19" font-weight="500">从一句话 idea，到可投稿全文 · 一条会自己编排的研究流水线</text>
<line x1="142" y1="255" x2="1138" y2="255" stroke="url(#rail)" stroke-width="6" stroke-linecap="round" opacity="0.28" filter="url(#soft)"/>
<line x1="142" y1="255" x2="1138" y2="255" stroke="url(#rail)" stroke-width="2.5" stroke-linecap="round" opacity="0.55"/>
<line x1="142" y1="255" x2="1138" y2="255" stroke="url(#rail)" stroke-width="3" stroke-linecap="round" stroke-dasharray="2 16"><animate attributeName="stroke-dashoffset" from="0" to="-18" dur="0.9s" repeatCount="indefinite"/></line>
<circle r="4.5" fill="url(#comet)" opacity="0.18"><animateMotion path="M142,255 L1138,255" dur="5s" begin="-0.34s" repeatCount="indefinite"/></circle>
<circle r="6" fill="url(#comet)" opacity="0.3"><animateMotion path="M142,255 L1138,255" dur="5s" begin="-0.2s" repeatCount="indefinite"/></circle>
<circle r="8" fill="url(#comet)" opacity="0.5"><animateMotion path="M142,255 L1138,255" dur="5s" begin="-0.08s" repeatCount="indefinite"/></circle>
<circle r="9" fill="url(#comet)" filter="url(#strong)"><animateMotion path="M142,255 L1138,255" dur="5s" repeatCount="indefinite"/></circle>
<circle r="4.5" fill="#FFFFFF"><animateMotion path="M142,255 L1138,255" dur="5s" repeatCount="indefinite"/></circle>
<line x1="274.0" y1="266" x2="274.0" y2="300" stroke="#6366F1" stroke-width="2" opacity="0.45"/>
<rect x="176" y="300" width="196" height="236" rx="16" fill="#0E1430" fill-opacity="0.92" stroke="#6366F1" stroke-opacity="0.4" stroke-width="1.4"/>
<rect x="176" y="300" width="196" height="236" rx="16" fill="none" stroke="#A5B4FC" stroke-width="2.4" filter="url(#soft)" opacity="0.12"><animate attributeName="opacity" values="0.12;0.95;0.12" dur="5s" begin="0.66s" repeatCount="indefinite"/></rect>
<text x="194" y="338" fill="#E7EBF8" font-size="22" font-weight="800">① 构思</text>
<text x="356" y="336" text-anchor="end" fill="#A5B4FC" font-size="12" letter-spacing="2.5" font-weight="700">CONCEIVE</text>
<line x1="192" y1="352" x2="356" y2="352" stroke="#6366F1" stroke-opacity="0.3" stroke-width="1"/>
<g><rect x="192" y="366" width="164" height="32" rx="8" fill="#6366F1" opacity="0.13"/><rect x="192" y="366" width="3.5" height="32" rx="1.8" fill="#A5B4FC"/><text x="206" y="387" fill="#A5B4FC" font-size="13.5" font-weight="800">S1</text><text x="226" y="387" fill="#E7EBF8" font-size="13.5" font-weight="500">选题与设计</text></g>
<text x="194" y="408" fill="#646C90" font-size="12">idea-finder → novelty-check</text>
<text x="194" y="426" fill="#646C90" font-size="12">→ significance → proposal</text>
<circle cx="274.0" cy="255" r="14" fill="#6366F1" opacity="0.25" filter="url(#soft)"><animate attributeName="opacity" values="0.25;0.8;0.25" dur="5s" begin="0.66s" repeatCount="indefinite"/></circle>
<circle cx="274.0" cy="255" r="8" fill="#0B1024" stroke="#A5B4FC" stroke-width="2.5"/>
<circle cx="274.0" cy="255" r="3.4" fill="#A5B4FC"/>
<line x1="518.0" y1="266" x2="518.0" y2="300" stroke="#10B981" stroke-width="2" opacity="0.45"/>
<rect x="420" y="300" width="196" height="236" rx="16" fill="#0E1430" fill-opacity="0.92" stroke="#10B981" stroke-opacity="0.4" stroke-width="1.4"/>
<rect x="420" y="300" width="196" height="236" rx="16" fill="none" stroke="#6EE7B7" stroke-width="2.4" filter="url(#soft)" opacity="0.12"><animate attributeName="opacity" values="0.12;0.95;0.12" dur="5s" begin="1.89s" repeatCount="indefinite"/></rect>
<text x="438" y="338" fill="#E7EBF8" font-size="22" font-weight="800">② 实证</text>
<text x="600" y="336" text-anchor="end" fill="#6EE7B7" font-size="12" letter-spacing="2.5" font-weight="700">EVIDENCE</text>
<line x1="436" y1="352" x2="600" y2="352" stroke="#10B981" stroke-opacity="0.3" stroke-width="1"/>
<g><rect x="436" y="366" width="164" height="32" rx="8" fill="#10B981" opacity="0.13"/><rect x="436" y="366" width="3.5" height="32" rx="1.8" fill="#6EE7B7"/><text x="450" y="387" fill="#6EE7B7" font-size="13.5" font-weight="800">S2</text><text x="470" y="387" fill="#E7EBF8" font-size="13.5" font-weight="500">数据 · fetch + clean</text></g>
<g><rect x="436" y="406" width="164" height="32" rx="8" fill="#10B981" opacity="0.13"/><rect x="436" y="406" width="3.5" height="32" rx="1.8" fill="#6EE7B7"/><text x="450" y="427" fill="#6EE7B7" font-size="13.5" font-weight="800">S3</text><text x="470" y="427" fill="#E7EBF8" font-size="13.5" font-weight="500">识别与估计 DiD/IV/RDD</text></g>
<g><rect x="436" y="446" width="164" height="32" rx="8" fill="#10B981" opacity="0.13"/><rect x="436" y="446" width="3.5" height="32" rx="1.8" fill="#6EE7B7"/><text x="450" y="467" fill="#6EE7B7" font-size="13.5" font-weight="800">S4</text><text x="470" y="467" fill="#E7EBF8" font-size="13.5" font-weight="500">表与图 · exhibits</text></g>
<circle cx="518.0" cy="255" r="14" fill="#10B981" opacity="0.25" filter="url(#soft)"><animate attributeName="opacity" values="0.25;0.8;0.25" dur="5s" begin="1.89s" repeatCount="indefinite"/></circle>
<circle cx="518.0" cy="255" r="8" fill="#0B1024" stroke="#6EE7B7" stroke-width="2.5"/>
<circle cx="518.0" cy="255" r="3.4" fill="#6EE7B7"/>
<line x1="762.0" y1="266" x2="762.0" y2="300" stroke="#0EA5E9" stroke-width="2" opacity="0.45"/>
<rect x="664" y="300" width="196" height="236" rx="16" fill="#0E1430" fill-opacity="0.92" stroke="#0EA5E9" stroke-opacity="0.4" stroke-width="1.4"/>
<rect x="664" y="300" width="196" height="236" rx="16" fill="none" stroke="#7DD3FC" stroke-width="2.4" filter="url(#soft)" opacity="0.12"><animate attributeName="opacity" values="0.12;0.95;0.12" dur="5s" begin="3.11s" repeatCount="indefinite"/></rect>
<text x="682" y="338" fill="#E7EBF8" font-size="22" font-weight="800">③ 成文</text>
<text x="844" y="336" text-anchor="end" fill="#7DD3FC" font-size="12" letter-spacing="2.5" font-weight="700">COMPOSE</text>
<line x1="680" y1="352" x2="844" y2="352" stroke="#0EA5E9" stroke-opacity="0.3" stroke-width="1"/>
<g><rect x="680" y="366" width="164" height="32" rx="8" fill="#0EA5E9" opacity="0.13"/><rect x="680" y="366" width="3.5" height="32" rx="1.8" fill="#7DD3FC"/><text x="694" y="387" fill="#7DD3FC" font-size="13.5" font-weight="800">S5</text><text x="714" y="387" fill="#E7EBF8" font-size="13.5" font-weight="500">写作初稿 main.tex</text></g>
<g><rect x="680" y="406" width="164" height="32" rx="8" fill="#0EA5E9" opacity="0.13"/><rect x="680" y="406" width="3.5" height="32" rx="1.8" fill="#7DD3FC"/><text x="694" y="427" fill="#7DD3FC" font-size="13.5" font-weight="800">S6</text><text x="714" y="427" fill="#E7EBF8" font-size="13.5" font-weight="500">全流程打磨 polish</text></g>
<g><rect x="680" y="446" width="164" height="32" rx="8" fill="#0EA5E9" opacity="0.13"/><rect x="680" y="446" width="3.5" height="32" rx="1.8" fill="#7DD3FC"/><text x="694" y="467" fill="#7DD3FC" font-size="13.5" font-weight="800">S7</text><text x="714" y="467" fill="#E7EBF8" font-size="13.5" font-weight="500">去 AI 味 de-slop</text></g>
<circle cx="762.0" cy="255" r="14" fill="#0EA5E9" opacity="0.25" filter="url(#soft)"><animate attributeName="opacity" values="0.25;0.8;0.25" dur="5s" begin="3.11s" repeatCount="indefinite"/></circle>
<circle cx="762.0" cy="255" r="8" fill="#0B1024" stroke="#7DD3FC" stroke-width="2.5"/>
<circle cx="762.0" cy="255" r="3.4" fill="#7DD3FC"/>
<line x1="1006.0" y1="266" x2="1006.0" y2="300" stroke="#F43F5E" stroke-width="2" opacity="0.45"/>
<rect x="908" y="300" width="196" height="236" rx="16" fill="#0E1430" fill-opacity="0.92" stroke="#F43F5E" stroke-opacity="0.4" stroke-width="1.4"/>
<rect x="908" y="300" width="196" height="236" rx="16" fill="none" stroke="#FDA4AF" stroke-width="2.4" filter="url(#soft)" opacity="0.12"><animate attributeName="opacity" values="0.12;0.95;0.12" dur="5s" begin="4.34s" repeatCount="indefinite"/></rect>
<text x="926" y="338" fill="#E7EBF8" font-size="22" font-weight="800">④ 出门</text>
<text x="1088" y="336" text-anchor="end" fill="#FDA4AF" font-size="12" letter-spacing="2.5" font-weight="700">SUBMIT</text>
<line x1="924" y1="352" x2="1088" y2="352" stroke="#F43F5E" stroke-opacity="0.3" stroke-width="1"/>
<g><rect x="924" y="366" width="164" height="32" rx="8" fill="#F43F5E" opacity="0.13"/><rect x="924" y="366" width="3.5" height="32" rx="1.8" fill="#FDA4AF"/><text x="938" y="387" fill="#FDA4AF" font-size="13.5" font-weight="800">S8</text><text x="958" y="387" fill="#E7EBF8" font-size="13.5" font-weight="500">模拟评审与修订</text></g>
<g><rect x="924" y="406" width="164" height="32" rx="8" fill="#F43F5E" opacity="0.13"/><rect x="924" y="406" width="3.5" height="32" rx="1.8" fill="#FDA4AF"/><text x="938" y="427" fill="#FDA4AF" font-size="13.5" font-weight="800">S9</text><text x="958" y="427" fill="#E7EBF8" font-size="13.5" font-weight="500">选刊与投稿</text></g>
<text x="926" y="448" fill="#646C90" font-size="12">referee → response</text>
<text x="926" y="466" fill="#646C90" font-size="12">→ shortlist → cover letter</text>
<circle cx="1006.0" cy="255" r="14" fill="#F43F5E" opacity="0.25" filter="url(#soft)"><animate attributeName="opacity" values="0.25;0.8;0.25" dur="5s" begin="4.34s" repeatCount="indefinite"/></circle>
<circle cx="1006.0" cy="255" r="8" fill="#0B1024" stroke="#FDA4AF" stroke-width="2.5"/>
<circle cx="1006.0" cy="255" r="3.4" fill="#FDA4AF"/>
<circle cx="100" cy="255" r="42" fill="none" stroke="#FBBF24" stroke-width="2.5" opacity="0"><animate attributeName="r" values="42;78" dur="5s" begin="0.0s" repeatCount="indefinite"/><animate attributeName="opacity" values="0.85;0" dur="5s" begin="0.0s" repeatCount="indefinite"/></circle><circle cx="100" cy="255" r="49" fill="#FBBF24" opacity="0.30" filter="url(#strong)"><animate attributeName="opacity" values="0.2;0.5;0.2" dur="3.4s" repeatCount="indefinite"/></circle><g transform="translate(100,255)"><animateTransform attributeName="transform" type="scale" additive="sum" values="1;1.045;1" dur="3.4s" repeatCount="indefinite"/><circle r="42" fill="url(#idea)"/><ellipse cx="-13" cy="-15" rx="15" ry="9" fill="#FFFFFF" opacity="0.35"/><g fill="none" stroke="#7C2D12" stroke-width="2.6" stroke-linecap="round" stroke-linejoin="round"><path d="M-11,-3 a11,11 0 1,1 22,0 c0,5 -4,8 -5,12 l-12,0 c-1,-4 -5,-7 -5,-12 z"/><line x1="-5" y1="13" x2="5" y2="13"/><line x1="-3.5" y1="17.5" x2="3.5" y2="17.5"/><path d="M-3.5,2 l3.5,-5 l3.5,5" stroke-width="2.2"/></g><g stroke="#B45309" stroke-width="2.2" stroke-linecap="round" opacity="0.9"><line x1="0" y1="-20" x2="0" y2="-25"/><line x1="-14" y1="-12" x2="-18" y2="-15"/><line x1="14" y1="-12" x2="18" y2="-15"/></g></g><text x="100" y="327" text-anchor="middle" fill="#E7EBF8" font-size="15" font-weight="700">一句话 idea</text><text x="100" y="347" text-anchor="middle" fill="#646C90" font-size="12">你只管出想法</text>
<circle cx="1180" cy="255" r="42" fill="none" stroke="#A5B4FC" stroke-width="2.5" opacity="0"><animate attributeName="r" values="42;78" dur="5s" begin="4.6s" repeatCount="indefinite"/><animate attributeName="opacity" values="0.85;0" dur="5s" begin="4.6s" repeatCount="indefinite"/></circle><circle cx="1180" cy="255" r="49" fill="#A5B4FC" opacity="0.30" filter="url(#strong)"><animate attributeName="opacity" values="0.2;0.5;0.2" dur="3.4s" repeatCount="indefinite"/></circle><g transform="translate(1180,255)"><animateTransform attributeName="transform" type="scale" additive="sum" values="1;1.045;1" dur="3.4s" repeatCount="indefinite"/><circle r="42" fill="url(#paper)"/><ellipse cx="-13" cy="-15" rx="15" ry="9" fill="#FFFFFF" opacity="0.35"/><g fill="none" stroke="#3730A3" stroke-width="2.6" stroke-linecap="round" stroke-linejoin="round"><path d="M-11,-16 h14 l8,8 v24 a0,0 0 0 1 0,0 h-22 z"/><path d="M3,-16 v8 h8"/><line x1="-6" y1="0" x2="7" y2="0"/><line x1="-6" y1="6" x2="7" y2="6"/><line x1="-6" y1="12" x2="2" y2="12"/></g></g><text x="1180" y="327" text-anchor="middle" fill="#E7EBF8" font-size="15" font-weight="700">可投稿全文</text><text x="1180" y="347" text-anchor="middle" fill="#646C90" font-size="12">main.tex + 投稿包</text>
<g><rect x="22" y="155" width="156" height="30" rx="15" fill="#1E1B4B" stroke="#6366F1" stroke-opacity="0.5" stroke-width="1"/><circle cx="42" cy="170" r="4" fill="#A5B4FC"><animate attributeName="opacity" values="0.3;1;0.3" dur="2s" repeatCount="indefinite"/></circle><text x="108" y="174" text-anchor="middle" fill="#9AA3C7" font-size="12.5" font-weight="600">Stage 0 · Intake</text></g>
<line x1="100" y1="185" x2="100" y2="209" stroke="#6366F1" stroke-width="1.5" stroke-dasharray="3 4" opacity="0.5"/>
<text x="640.0" y="606" text-anchor="middle" fill="#646C90" font-size="13.5">能调用就不要重写 · 上下文保护 · 真实优先 · 失败回退 · 人类守在阶段闸门</text>
</svg>
